<svg xmlns="http://www.w3.org/2000/svg" xmlns:xlink="http://www.w3.org/1999/xlink"><symbol id="bell" viewBox="0 0 512 512"><path d="M467.812 431.851l-36.629-61.056a181.363 181.363 0 01-25.856-93.312V224c0-67.52-45.056-124.629-106.667-143.04V42.667C298.66 19.136 279.524 0 255.993 0s-42.667 19.136-42.667 42.667V80.96C151.716 99.371 106.66 156.48 106.66 224v53.483c0 32.853-8.939 65.109-25.835 93.291L44.196 431.83a10.653 10.653 0 00-.128 10.752c1.899 3.349 5.419 5.419 9.259 5.419H458.66c3.84 0 7.381-2.069 9.28-5.397 1.899-3.329 1.835-7.468-.128-10.753zm-278.997 37.482C200.847 494.464 226.319 512 255.993 512s55.147-17.536 67.179-42.667H188.815z"/></symbol><symbol id="clock" viewBox="0 0 32 32"><path class="cls-1" d="M16 31a15 15 0 1115-15 15 15 0 01-15 15zm0-28a13 13 0 1013 13A13 13 0 0016 3z"/><path class="cls-1" d="M20.24 21.66l-4.95-4.95A1 1 0 0115 16V8h2v7.59l4.66 4.65z"/></symbol><symbol id="user" viewBox="0 0 32 32"><path d="M16 16a7 7 0 10-7-7 7 7 0 007 7zm0-12a5 5 0 11-5 5 5 5 0 015-5zm1 14h-2A11 11 0 004 29a1 1 0 001 1h22a1 1 0 001-1 11 11 0 00-11-11zM6.06 28A9 9 0 0115 20h2a9 9 0 018.94 8z"/></symbol><symbol id="view" viewBox="0 0 512 512"><path d="M256 96C144.341 96 47.559 161.021 0 256c47.559 94.979 144.341 160 256 160 111.656 0 208.439-65.021 256-160-47.559-94.979-144.344-160-256-160zm126.225 84.852c30.082 19.187 55.572 44.887 74.719 75.148-19.146 30.261-44.639 55.961-74.719 75.148C344.428 355.257 300.779 368 256 368c-44.78 0-88.428-12.743-126.225-36.852C99.695 311.96 74.205 286.26 55.058 256c19.146-30.262 44.637-55.962 74.717-75.148a235.143 235.143 0 015.929-3.65C130.725 190.866 128 205.613 128 221c0 70.691 57.308 128 128 128 70.691 0 128-57.309 128-128 0-15.387-2.725-30.134-7.703-43.799a240.633 240.633 0 015.928 3.651zM256 205c0 26.51-21.49 48-48 48s-48-21.49-48-48 21.49-48 48-48 48 21.49 48 48z"/></symbol></svg>